<svg width="512" height="512" viewBox="0 0 512 512" fill="none" xmlns="http://www.w3.org/2000/svg">
<rect width="512" height="512" rx="79" fill="white"/>
<path d="M84.375 330.246C74.1211 330.246 66.9922 324.484 66.9922 312.375V247.141H63.1836C56.4453 247.141 50.9766 242.746 50.9766 234.738C50.9766 226.828 56.4453 222.434 63.1836 222.434H66.9922V216.281C66.9922 194.992 77.6367 185.812 99.1211 185.617C117.48 185.617 124.609 191.281 124.609 198.996C124.609 203.488 122.461 206.125 118.164 207.297C116.602 207.785 114.746 208.078 112.598 208.176C103.906 208.664 100.684 211.691 100.684 217.941V222.434H111.035C117.871 222.434 123.242 226.828 123.242 234.738C123.242 242.746 117.871 247.141 111.035 247.141H101.66V312.375C101.66 324.484 94.5312 330.246 84.375 330.246ZM153.027 330.246C142.871 330.246 135.645 324.387 135.645 312.277V202.805C135.645 190.695 142.871 184.836 153.027 184.836C163.086 184.836 170.312 190.695 170.312 202.805V312.277C170.312 324.387 163.086 330.246 153.027 330.246ZM238.77 330.539C205.273 330.539 184.375 310.227 184.375 274.777C184.375 240.012 205.762 219.113 238.77 219.113C271.973 219.113 293.164 239.914 293.164 274.777C293.164 310.324 272.266 330.539 238.77 330.539ZM238.77 305.148C250.586 305.148 258.105 294.309 258.105 274.875C258.105 255.734 250.586 244.504 238.77 244.504C227.051 244.504 219.531 255.734 219.531 274.875C219.531 294.309 226.855 305.148 238.77 305.148ZM343.555 330.246C331.445 330.246 325.098 324.484 321.484 311.789L302.344 245.285C300.977 240.5 300.293 237.57 300.293 234.152C300.293 225.559 307.324 219.406 316.992 219.406C325.586 219.406 331.445 224.875 333.301 234.25L346.484 296.75H347.168L360.645 235.324C362.695 224.973 369.531 219.406 379.98 219.406C390.332 219.406 397.168 224.973 399.316 235.422L412.891 296.75H413.574L426.758 233.957C428.516 224.875 434.277 219.406 442.871 219.406C452.344 219.406 459.082 225.461 459.082 233.957C459.082 237.277 458.398 240.207 457.129 244.895L437.988 311.594C434.277 324.484 427.832 330.246 415.43 330.246C402.441 330.246 395.703 324.582 392.773 311.496L379.59 256.418H378.906L365.82 311.789C362.988 324.68 356.25 330.246 343.555 330.246Z" fill="url(#paint0_linear_9_79)"/>
<defs>
<linearGradient id="paint0_linear_9_79" x1="256.5" y1="137" x2="256.5" y2="376" gradientUnits="userSpaceOnUse">
<stop stop-color="#2D3FFF"/>
<stop offset="0.923077" stop-color="#D016FF"/>
</linearGradient>
</defs>
</svg>
