<svg width="410" height="147" viewBox="0 0 410 147" fill="none" xmlns="http://www.w3.org/2000/svg">
<path d="M34.375 146.246C24.1211 146.246 16.9922 140.484 16.9922 128.375V63.1406H13.1836C6.44531 63.1406 0.976562 58.7461 0.976562 50.7383C0.976562 42.8281 6.44531 38.4336 13.1836 38.4336H16.9922V32.2812C16.9922 10.9922 27.6367 1.8125 49.1211 1.61719C67.4805 1.61719 74.6094 7.28125 74.6094 14.9961C74.6094 19.4883 72.4609 22.125 68.1641 23.2969C66.6016 23.7852 64.7461 24.0781 62.5977 24.1758C53.9062 24.6641 50.6836 27.6914 50.6836 33.9414V38.4336H61.0352C67.8711 38.4336 73.2422 42.8281 73.2422 50.7383C73.2422 58.7461 67.8711 63.1406 61.0352 63.1406H51.6602V128.375C51.6602 140.484 44.5312 146.246 34.375 146.246ZM103.027 146.246C92.8711 146.246 85.6445 140.387 85.6445 128.277V18.8047C85.6445 6.69531 92.8711 0.835938 103.027 0.835938C113.086 0.835938 120.312 6.69531 120.312 18.8047V128.277C120.312 140.387 113.086 146.246 103.027 146.246ZM188.77 146.539C155.273 146.539 134.375 126.227 134.375 90.7773C134.375 56.0117 155.762 35.1133 188.77 35.1133C221.973 35.1133 243.164 55.9141 243.164 90.7773C243.164 126.324 222.266 146.539 188.77 146.539ZM188.77 121.148C200.586 121.148 208.105 110.309 208.105 90.875C208.105 71.7344 200.586 60.5039 188.77 60.5039C177.051 60.5039 169.531 71.7344 169.531 90.875C169.531 110.309 176.855 121.148 188.77 121.148ZM293.555 146.246C281.445 146.246 275.098 140.484 271.484 127.789L252.344 61.2852C250.977 56.5 250.293 53.5703 250.293 50.1523C250.293 41.5586 257.324 35.4062 266.992 35.4062C275.586 35.4062 281.445 40.875 283.301 50.25L296.484 112.75H297.168L310.645 51.3242C312.695 40.9727 319.531 35.4062 329.98 35.4062C340.332 35.4062 347.168 40.9727 349.316 51.4219L362.891 112.75H363.574L376.758 49.957C378.516 40.875 384.277 35.4062 392.871 35.4062C402.344 35.4062 409.082 41.4609 409.082 49.957C409.082 53.2773 408.398 56.207 407.129 60.8945L387.988 127.594C384.277 140.484 377.832 146.246 365.43 146.246C352.441 146.246 345.703 140.582 342.773 127.496L329.59 72.418H328.906L315.82 127.789C312.988 140.68 306.25 146.246 293.555 146.246Z" fill="url(#paint0_linear_9_78)"/>
<defs>
<linearGradient id="paint0_linear_9_78" x1="206.5" y1="-47" x2="206.5" y2="192" gradientUnits="userSpaceOnUse">
<stop stop-color="#2D3FFF"/>
<stop offset="0.923077" stop-color="#D016FF"/>
</linearGradient>
</defs>
</svg>
